Coordinates
version=1
nRows=13
nColumns=40
inDegrees=yes

Units are S.I. units (second, meters, Newtons, ...)
Angles are in degrees.

endheader
time	pelvis_tilt	pelvis_list	pelvis_rotation	pelvis_tx	pelvis_ty	pelvis_tz	hip_flexion_r	hip_adduction_r	hip_rotation_r	knee_angle_r	knee_angle_r_beta	ankle_angle_r	subtalar_angle_r	mtp_angle_r	hip_flexion_l	hip_adduction_l	hip_rotation_l	knee_angle_l	knee_angle_l_beta	ankle_angle_l	subtalar_angle_l	mtp_angle_l	lumbar_extension	lumbar_bending	lumbar_rotation	arm_flex_r	arm_add_r	arm_rot_r	elbow_flex_r	pro_sup_r	wrist_flex_r	wrist_dev_r	arm_flex_l	arm_add_l	arm_rot_l	elbow_flex_l	pro_sup_l	wrist_flex_l	wrist_dev_l
     14.66314286	     -5.78957267	     -2.91535167	     -5.38739268	      0.79630549	      0.92407968	      0.45382407	     28.46416499	     -1.28976934	    -11.74422692	     12.91231305	     12.91231305	     -0.84223179	      7.59185453	      5.38432582	      7.32085334	     -3.33996956	     -8.76522747	     18.06987702	     18.06987702	     17.78973489	     -8.04746061	     -3.18839547	     -9.98958247	      4.56828022	      1.15219940	    -17.43141857	    -14.00523557	     -9.65150392	     27.62335874	     47.27877521	      0.00000000	      0.00000000	     18.00946953	    -16.39187416	    -10.17802201	     74.65774131	     47.51339392	      0.00000000	      0.00000000
     14.67628571	     -5.82383061	     -2.85208562	     -5.14391978	      0.79742619	      0.92323230	      0.45543659	     28.01170648	     -1.41896788	    -11.81838529	     13.58134250	     13.58134250	     -0.69464760	      7.13613994	      5.08890101	      6.58888443	     -3.30254700	     -8.62862743	     17.61793216	     17.61793216	     18.13142813	     -7.70577594	     -3.26629431	     -9.67767870	      4.69658829	      1.10607473	    -17.23608333	    -13.67689143	     -9.59827160	     27.72273181	     47.26710411	      0.00000000	      0.00000000	     17.91570594	    -16.03107494	    -10.09801992	     74.90016176	     47.51285692	      0.00000000	      0.00000000
     14.68942857	     -5.66858540	     -2.54449770	     -5.09534310	      0.79888952	      0.92248844	      0.45744985	     27.48168438	     -1.65077063	    -11.16141044	     14.45411515	     14.45411515	     -1.04540080	      5.86143212	      2.55408447	      5.40316755	     -3.03399019	     -9.08137206	     16.75605297	     16.75605297	     18.40965765	     -6.75978530	     -3.51337242	     -9.62589936	      4.42181784	      0.79988006	    -16.84984947	    -13.57057958	     -9.46834944	     28.28557512	     47.17534265	      0.00000000	      0.00000000	     16.86445297	    -16.09932980	    -10.69347101	     77.21943388	     47.61041142	      0.00000000	      0.00000000
     14.70257143	     -5.61911663	     -2.44925528	     -4.87886470	      0.80033219	      0.92170526	      0.45928955	     27.02922461	     -1.79696896	    -11.00249196	     15.39989956	     15.39989956	     -0.57588990	      5.27823634	      2.03070563	      4.45433575	     -2.96257274	     -9.05148705	     16.09794141	     16.09794141	     18.73013052	     -6.29438722	     -3.49642639	     -9.43298481	      4.54055119	      0.86779763	    -16.46805302	    -13.32618720	     -9.37133080	     28.43571876	     47.15705404	      0.00000000	      0.00000000	     16.60527869	    -15.70444149	    -10.60317465	     77.43088090	     47.60908216	      0.00000000	      0.00000000
     14.71571429	     -5.53932346	     -2.25076606	     -4.76736265	      0.80182458	      0.92102471	      0.46144444	     26.58926708	     -1.93983014	    -10.54140405	     16.28676927	     16.28676927	     -0.17272469	      4.41700784	      1.20674348	      3.43561058	     -2.80372920	     -9.18989447	     15.39192017	     15.39192017	     18.97814877	     -5.68226604	     -3.34431896	     -9.22541223	      4.42568634	      0.90269305	    -15.94130972	    -13.08813263	     -9.21667286	     28.73729542	     47.12148424	      0.00000000	      0.00000000	     16.09154761	    -15.48348088	    -10.61222201	     78.07815417	     47.62385287	      0.00000000	      0.00000000
     14.72885714	     -5.46113337	     -2.24221993	     -4.59295734	      0.80325296	      0.92043357	      0.46368698	     26.06344410	     -1.84602739	    -10.08986541	     16.90551526	     16.90551526	     -0.06623949	      3.33786601	     -0.57781271	      2.62576523	     -2.90653884	     -9.27071553	     15.10587666	     15.10587666	     19.50893071	     -5.09057785	     -2.75908573	     -9.13524231	      4.55737531	      0.51859443	    -15.06467474	    -13.03771237	     -8.65735118	     29.22965184	     47.01828347	      0.00000000	      0.00000000	     14.92773869	    -15.41751515	    -11.00274818	     79.49362808	     47.68752401	      0.00000000	      0.00000000
     14.74200000	     -5.45770709	     -2.32215929	     -4.42062309	      0.80444644	      0.91998029	      0.46603339	     25.68594068	     -1.72210931	    -10.05542074	     17.57056479	     17.57056479	      0.56920100	      3.00459459	     -0.98533026	      2.03398812	     -3.12405644	     -9.16600030	     15.00824397	     15.00824397	     19.70104660	     -5.00124150	     -2.69627067	     -8.95428276	      4.80743896	      0.70327840	    -14.29647911	    -12.85925953	     -8.56453532	     29.51311681	     47.00228217	      0.00000000	      0.00000000	     14.48844257	    -14.94415014	    -10.82223622	     79.38186298	     47.67195390	      0.00000000	      0.00000000
     14.75514286	     -5.35380413	     -2.32387625	     -4.30019531	      0.80549330	      0.91974158	      0.46856443	     25.43550806	     -1.63552627	     -9.73379195	     18.50852416	     18.50852416	      1.31490993	      2.34231693	     -1.54929415	      1.40607715	     -3.26818999	     -9.06668299	     15.02867295	     15.02867295	     19.90291656	     -4.89276593	     -2.45313782	     -8.93805530	      4.91698140	      0.78967235	    -13.36953728	    -12.79987040	     -8.44185441	     29.89861926	     46.97797011	      0.00000000	      0.00000000	     13.95479355	    -14.70785901	    -10.73521417	     79.29614683	     47.66415748	      0.00000000	      0.00000000
     14.76828571	     -5.38516430	     -2.34483510	     -4.17367903	      0.80617506	      0.91958196	      0.47111857	     25.31234661	     -1.46559692	     -9.28419152	     19.24895376	     19.24895376	      1.91340873	      1.38462830	     -2.12601116	      1.24382315	     -3.49748969	     -8.92001860	     15.59602677	     15.59602677	     20.20561137	     -5.01046838	     -1.87852561	     -8.83937349	      5.13858522	      0.68023246	    -12.15455719	    -12.69128827	     -8.17182195	     30.47285290	     46.92964622	      0.00000000	      0.00000000	     13.11537261	    -14.54957438	    -10.73241100	     79.30211248	     47.66520964	      0.00000000	      0.00000000
     14.78142857	     -5.25031014	     -2.47865935	     -4.06560448	      0.80681348	      0.91994827	      0.47385201	     24.90016435	     -1.21457998	     -9.22065024	     19.75040414	     19.75040414	      2.55302190	      1.05218236	     -2.47790505	      0.99413208	     -3.86860606	     -8.78117472	     16.31910071	     16.31910071	     20.22806728	     -5.30796554	     -1.73444197	     -8.97735476	      5.39517779	      0.90058987	    -11.00368668	    -12.66100833	     -8.07417612	     30.93509880	     46.90867387	      0.00000000	      0.00000000	     12.50204669	    -14.07722669	    -10.53413352	     79.10075253	     47.64617745	      0.00000000	      0.00000000
     14.79457143	     -5.30932412	     -2.63723366	     -3.88077746	      0.80692791	      0.92006755	      0.47668165	     24.78081243	     -0.90201150	     -9.03268757	     20.29919009	     20.29919009	      3.12083168	      0.32292740	     -2.80458808	      1.50235350	     -4.37591302	     -8.41919157	     17.99458074	     17.99458074	     20.38692087	     -5.95571528	     -1.50851849	     -8.93146549	      5.66457385	      0.71644221	     -9.57516687	    -12.63741571	     -7.87451751	     31.66820841	     46.86496706	      0.00000000	      0.00000000	     11.67461964	    -13.99270712	    -10.46404175	     78.71313372	     47.63430676	      0.00000000	      0.00000000
     14.80771429	     -5.27312209	     -2.76523139	     -3.70298442	      0.80694002	      0.92053476	      0.47954728	     24.50118585	     -0.60013047	     -8.81289423	     20.69889670	     20.69889670	      3.62246825	     -0.42709099	     -3.00172325	      2.06357569	     -4.87530624	     -8.09931672	     19.94094463	     19.94094463	     20.55743226	     -6.52465724	     -0.95800925	     -9.01235493	      5.89632165	      0.49706245	     -8.06154700	    -12.72408671	     -7.23116314	     32.62286865	     46.76431795	      0.00000000	      0.00000000	     10.69917993	    -13.78699511	    -10.55117881	     78.38397995	     47.64116752	      0.00000000	      0.00000000
     14.82085714	     -5.22531588	     -2.93834867	     -3.50269909	      0.80678075	      0.92110348	      0.48241617	     24.10930357	     -0.30664991	     -8.92036685	     20.91921393	     20.91921393	      4.14472835	     -0.60121391	     -3.17962033	      2.86520426	     -5.44826405	     -7.64692788	     22.28260183	     22.28260183	     20.26544743	     -7.43595366	     -1.22289995	     -9.12987014	      6.12889280	      0.47704862	     -6.55528831	    -12.74369878	     -7.03743641	     33.40574675	     46.72139239	      0.00000000	      0.00000000	      9.97372076	    -13.48484415	    -10.27383420	     77.72810255	     47.61065675	      0.00000000	      0.00000000
